<svg width="30" height="31" viewBox="0 0 30 31" fill="none" xmlns="http://www.w3.org/2000/svg">
<path d="M15 0.125C6.66667 0.125 0 6.79167 0 15.125C0 23.4583 6.66667 30.125 15 30.125C23.3333 30.125 30 23.4583 30 15.125C30 6.79167 23.3333 0.125 15 0.125ZM15 11.7917C16.8333 11.7917 18.3333 13.2917 18.3333 15.125C18.3333 16.9583 16.8333 18.4583 15 18.4583C13.1667 18.4583 11.6667 16.9583 11.6667 15.125C11.6667 13.2917 13.1667 11.7917 15 11.7917ZM19.6667 8.45833C19.6667 7.29167 20.6667 6.45833 21.6667 6.45833C22.6667 6.45833 23.6667 7.45833 23.6667 8.45833C23.6667 9.45833 22.8333 10.4583 21.6667 10.4583C20.5 10.4583 19.6667 9.625 19.6667 8.45833ZM15 26.7917C8.5 26.7917 3.33333 21.625 3.33333 15.125H8.33333C8.33333 18.7917 11.3333 21.7917 15 21.7917C18.6667 21.7917 21.6667 18.7917 21.6667 15.125H26.6667C26.6667 21.625 21.5 26.7917 15 26.7917Z" fill="black"/>
</svg>
