<svg width="30" height="31" viewBox="0 0 30 31" fill="none" xmlns="http://www.w3.org/2000/svg">
<path d="M15 30.125C6.72833 30.125 0 23.395 0 15.125C0 6.855 6.72833 0.125 15 0.125C23.2717 0.125 30 6.855 30 15.125C30 23.395 23.2717 30.125 15 30.125ZM15 3.45833C8.56833 3.45833 3.33333 8.69167 3.33333 15.125C3.33333 21.5583 8.56833 26.7917 15 26.7917C21.4317 26.7917 26.6667 21.5583 26.6667 15.125C26.6667 8.69167 21.4317 3.45833 15 3.45833ZM17.6083 16.1683C17.8933 16.1683 18.135 16.3083 18.3433 16.5933C18.55 16.875 18.655 17.2233 18.655 17.635C18.655 18.0483 18.5517 18.3967 18.3433 18.6783C18.135 18.96 17.8917 19.1017 17.6083 19.1017C17.3067 19.1017 17.0467 18.9617 16.84 18.6783C16.6333 18.3967 16.5283 18.0483 16.5283 17.635C16.5283 17.2217 16.6317 16.875 16.84 16.5933C17.0483 16.3083 17.3083 16.1683 17.6083 16.1683ZM21.2917 12.3533C22.095 13.2233 22.5 14.2783 22.5 15.5167C22.5 16.32 22.405 17.0417 22.2233 17.685C22.076 18.241 21.8396 18.7696 21.5233 19.25C21.2357 19.658 20.8826 20.0156 20.4783 20.3083C20.1264 20.5768 19.743 20.8012 19.3367 20.9767C18.99 21.1183 18.5933 21.2267 18.1433 21.3033C17.8095 21.3669 17.4723 21.4109 17.1333 21.435L16.4 21.45L15.8133 21.4667L15 21.485L14.1867 21.4667L13.6 21.45L12.8667 21.435C12.5277 21.4111 12.1904 21.3671 11.8567 21.3033C11.4478 21.2401 11.0474 21.1305 10.6633 20.9767C10.257 20.8022 9.87405 20.5777 9.52333 20.3083C9.11891 20.0152 8.76533 19.6576 8.47667 19.25C8.16036 18.7696 7.92397 18.241 7.77667 17.685C7.58525 16.9784 7.49215 16.2487 7.5 15.5167C7.5 14.2783 7.90333 13.2233 8.70833 12.3533C8.62 12.31 8.615 11.8767 8.695 11.05C8.75541 10.2663 8.93468 9.49641 9.22667 8.76667C10.23 8.87333 11.465 9.44 12.9433 10.4617C13.4433 10.3317 14.1267 10.265 14.9983 10.265C15.9133 10.265 16.5967 10.3317 17.055 10.4617C17.6685 10.0402 18.315 9.66899 18.9883 9.35167C19.6117 9.07167 20.0617 8.90667 20.345 8.86333L20.7683 8.76667C21.055 9.46167 21.23 10.225 21.3017 11.05C21.385 11.8767 21.38 12.31 21.2917 12.3533ZM15.035 20.7317C16.84 20.7317 18.2 20.5167 19.125 20.0817C20.0467 19.6483 20.5133 18.755 20.5133 17.4067C20.5133 16.625 20.22 15.9717 19.6317 15.45C19.3385 15.172 18.9676 14.9901 18.5683 14.9283C18.1717 14.8633 17.5567 14.8633 16.7283 14.9283C15.9033 14.995 15.3383 15.025 15.035 15.025C14.6217 15.025 14.1733 15.0033 13.6167 14.96L12.3117 14.8783C11.9659 14.8723 11.6208 14.9109 11.285 14.9933C10.946 15.0654 10.6307 15.2219 10.3683 15.4483C9.80833 15.9483 9.52333 16.6 9.52333 17.405C9.52333 18.7533 9.98 19.6467 10.8917 20.08C11.8033 20.515 13.16 20.73 14.965 20.73M12.425 16.1683C12.7083 16.1683 12.9517 16.3083 13.1583 16.5933C13.365 16.875 13.47 17.2233 13.47 17.635C13.47 18.0483 13.3667 18.3967 13.1583 18.6783C12.9517 18.96 12.7067 19.1017 12.425 19.1017C12.1217 19.1017 11.8633 18.9617 11.655 18.6783C11.4483 18.3967 11.3433 18.0483 11.3433 17.635C11.3433 17.2217 11.4467 16.875 11.655 16.5933C11.8633 16.3083 12.1217 16.1683 12.425 16.1683Z" fill="black"/>
</svg>
