<svg width="30" height="31" viewBox="0 0 30 31" fill="none" xmlns="http://www.w3.org/2000/svg">
<path d="M20.465 12.2633C21.0617 11.895 21.46 11.395 21.6533 10.7567C21.1067 11.0526 20.52 11.2676 19.9117 11.395C19.6629 11.1214 19.3583 10.9043 19.0184 10.7585C18.6786 10.6127 18.3114 10.5416 17.9417 10.55C17.1683 10.55 16.5167 10.8217 15.9833 11.3483C15.7264 11.599 15.5232 11.8995 15.3862 12.2313C15.2493 12.5631 15.1814 12.9194 15.1867 13.2783C15.1867 13.5067 15.215 13.7117 15.2733 13.885C12.9933 13.805 11.1083 12.8617 9.62167 11.0417C9.37781 11.4561 9.24733 11.9275 9.24333 12.4083C9.24333 13.3717 9.65 14.135 10.46 14.6967C10.0344 14.6679 9.6197 14.5492 9.24333 14.3483C9.24333 15.0367 9.445 15.6117 9.85167 16.1183C10.2567 16.6183 10.78 16.9383 11.4167 17.0733C11.1797 17.1333 10.9361 17.163 10.6917 17.1617C10.5248 17.1712 10.3577 17.1503 10.1983 17.1C10.3717 17.6617 10.6917 18.115 11.155 18.4633C11.6167 18.8133 12.15 18.9967 12.75 19.0133C11.787 19.779 10.5885 20.1877 9.35833 20.17C9.045 20.17 8.825 20.1667 8.69167 20.1417C9.94109 20.9543 11.4029 21.3794 12.8933 21.3633C14.4783 21.3633 15.88 20.9617 17.0967 20.1583C18.3133 19.36 19.215 18.375 19.7917 17.2133C20.3627 16.0909 20.6602 14.8493 20.66 13.59V13.2417C21.22 12.82 21.675 12.345 22.0233 11.8183C21.5275 12.0394 21.0028 12.1893 20.465 12.2633ZM15 30.125C10.85 30.125 7.275 28.6417 4.37333 25.715C1.47167 22.7967 0 19.2333 0 15.125C0 10.9783 1.47333 7.40167 4.37833 4.5C7.27833 1.59833 10.8517 0.125 15 0.125C19.11 0.125 22.6733 1.59667 25.59 4.49833C28.5167 7.40167 30 10.9783 30 15.125C30 19.2333 28.5183 22.7983 25.5933 25.72C22.675 28.6417 19.1117 30.125 15 30.125ZM15 3.45833C11.7233 3.45833 9.02 4.57 6.73667 6.85833C4.445 9.145 3.33333 11.8483 3.33333 15.125C3.33333 18.365 4.44667 21.0617 6.73833 23.3667C9.025 25.6717 11.7267 26.7917 15 26.7917C18.2383 26.7917 20.9333 25.67 23.2367 23.3633C25.545 21.0567 26.6667 18.36 26.6667 15.125C26.6667 11.8533 25.5467 9.15 23.2417 6.86333C20.9367 4.57167 18.2417 3.45833 15 3.45833Z" fill="black"/>
</svg>
