<svg width="30" height="31" viewBox="0 0 30 31" fill="none" xmlns="http://www.w3.org/2000/svg">
<path d="M11.7217 20.625H9.055V11.96H11.7217V20.625ZM10.3883 10.8483C9.42667 10.8483 8.945 10.4033 8.945 9.515C8.94202 9.33673 8.97772 9.15993 9.04965 8.99679C9.12159 8.83364 9.22803 8.68804 9.36167 8.57C9.63958 8.31071 10.0084 8.17121 10.3883 8.18167C11.35 8.18167 11.8317 8.62833 11.8317 9.51667C11.8317 10.405 11.3517 10.8483 10.3883 10.8483ZM21.6117 20.625H18.89V15.7917C18.89 14.5333 18.4433 13.9033 17.555 13.9033C16.8517 13.9033 16.39 14.255 16.165 14.9583C16.0933 15.07 16.055 15.2933 16.055 15.625V20.625H13.3333V14.7367C13.3333 13.4033 13.3133 12.4783 13.2783 11.96H15.6117L15.7783 13.125C16.39 12.1983 17.2783 11.7367 18.5 11.7367C19.4283 11.7367 20.1767 12.06 20.75 12.7083C21.3267 13.3567 21.6133 14.2917 21.6133 15.515V20.625H21.6117ZM15 30.125C6.72833 30.125 0 23.3967 0 15.125C0 6.85333 6.72833 0.125 15 0.125C23.2717 0.125 30 6.85333 30 15.125C30 23.3967 23.2717 30.125 15 30.125ZM15 3.45833C8.56833 3.45833 3.33333 8.69333 3.33333 15.125C3.33333 21.5567 8.56833 26.7917 15 26.7917C21.4317 26.7917 26.6667 21.5567 26.6667 15.125C26.6667 8.69333 21.4317 3.45833 15 3.45833Z" fill="black"/>
</svg>
